# xmcd
#
# Track frame offsets: 
#        300
#        13617
#        26941
#        38399
#        50978
#        65096
#        77348
#        91856
#        103230
#        117271
#        128931
#        141231
#        152028
#        162664
#        176016
#        189312
#        199252
#        214129
#        226283
#        239071
#        251170
#        265517
#        277428
#        289673
#        300553
#        312979
#        325210
#        337789
#
# Disc length: 4673 seconds
#
# Revision: 0
# Processed by: cddbd v1.5.2PL0 Copyright (c) Steve Scherf et al.
# Submitted via: ExactAudioCopy v1.0b1
#
DISCID=a5123d1c
DTITLE=T-Bone Walker - Classics of Modern Blues
DYEAR=1975
DGENRE=Texas Blues
TTITLE0=I Got the Blues
TTITLE1=Love Is Just a Gamble
TTITLE2=Strollin' With Bones
TTITLE3=Life Is Too Short
TTITLE4=Street Walking Woman
TTITLE5=Railroad Station Blues
TTITLE6=Cold Cold Feeling
TTITLE7=Everytime
TTITLE8=Get These Blues Off Me
TTITLE9=The Hustle Is On
TTITLE10=I Get So Weary
TTITLE11=News for You Baby
TTITLE12=The Sun Went Down
TTITLE13=High Society
TTITLE14=You Don't Love Me
TTITLE15=Party Girl
TTITLE16=I Got the Blues Again
TTITLE17=Tell Me What's the Reason
TTITLE18=Blues Is a Woman
TTITLE19=You Don't Understand
TTITLE20=Through With Women
TTITLE21=Evil Hearted Woman
TTITLE22=Alimony Blues
TTITLE23=I'm About to Lose My Mind
TTITLE24=Baby You Broke My Heart
TTITLE25=Got No Use for You
TTITLE26=Bye Bye Baby
TTITLE27=Blue Mood
EXTD=
EXTT0=
EXTT1=
EXTT2=
EXTT3=
EXTT4=
EXTT5=
EXTT6=
EXTT7=
EXTT8=
EXTT9=
EXTT10=
EXTT11=
EXTT12=
EXTT13=
EXTT14=
EXTT15=
EXTT16=
EXTT17=
EXTT18=
EXTT19=
EXTT20=
EXTT21=
EXTT22=
EXTT23=
EXTT24=
EXTT25=
EXTT26=
EXTT27=
PLAYORDER=
